<svg xmlns="http://www.w3.org/2000/svg" viewBox="0 0 64 64" width="64" height="64">
  <title>Emberglass</title>
  <defs>
    <radialGradient id="f_inner" cx="0.52" cy="0.68" r="0.45">
      <stop offset="0" stop-color="#fff4c0" stop-opacity="0.2"/><stop offset="1" stop-color="#ffb030" stop-opacity="0"/>
    </radialGradient>
    <linearGradient id="f_g_dark" x1="0" y1="0" x2="1" y2="1"><stop offset="0" stop-color="#3e0d1c"/><stop offset="1" stop-color="#9b2216"/></linearGradient>
    <linearGradient id="f_g_orange" x1="0" y1="0" x2="1" y2="1"><stop offset="0" stop-color="#c43a18"/><stop offset="1" stop-color="#f58a26"/></linearGradient>
    <linearGradient id="f_g_gold" x1="0" y1="0" x2="1" y2="1"><stop offset="0" stop-color="#ffedaa"/><stop offset="1" stop-color="#ff9f2c"/></linearGradient>
    <linearGradient id="f_g_red" x1="0" y1="0" x2="1" y2="1"><stop offset="0" stop-color="#e8681e"/><stop offset="1" stop-color="#a72c18"/></linearGradient>
    <linearGradient id="f_g_redor" x1="0" y1="0" x2="1" y2="1"><stop offset="0" stop-color="#7d1915"/><stop offset="1" stop-color="#d04818"/></linearGradient>
    <linearGradient id="f_g_amber" x1="0" y1="0" x2="1" y2="1"><stop offset="0" stop-color="#e05a1c"/><stop offset="1" stop-color="#ffb540"/></linearGradient>
    <linearGradient id="f_g_deep" x1="1" y1="0" x2="0" y2="1"><stop offset="0" stop-color="#d8581c"/><stop offset="1" stop-color="#741612"/></linearGradient>
    <linearGradient id="f_g_core" x1="0" y1="0" x2="0" y2="1"><stop offset="0" stop-color="#ffc040"/><stop offset="1" stop-color="#fff4c0"/></linearGradient>
    <linearGradient id="f_g_or2" x1="0" y1="0" x2="1" y2="1"><stop offset="0" stop-color="#e2601c"/><stop offset="1" stop-color="#ffb53a"/></linearGradient>
    <linearGradient id="f_g_right" x1="0" y1="0" x2="1" y2="1"><stop offset="0" stop-color="#f39a2c"/><stop offset="1" stop-color="#c23e18"/></linearGradient>
    <linearGradient id="f_g_gold2" x1="1" y1="0" x2="0" y2="1"><stop offset="0" stop-color="#ff962c"/><stop offset="1" stop-color="#ffd458"/></linearGradient>
  </defs>
  <g transform="translate(16.09 4) scale(0.1273)">
    <g stroke-linejoin="round"><polygon points="131,0 0,198 96,262" fill="url(#f_g_redor)"/><polygon points="131,0 96,262 150,212" fill="url(#f_g_amber)"/><polygon points="131,0 150,212 246,212 238,150" fill="url(#f_g_gold)"/><polygon points="0,198 44,338 96,262" fill="url(#f_g_deep)"/><polygon points="96,262 150,212 130,440" fill="url(#f_g_core)"/><polygon points="44,338 96,262 130,440" fill="url(#f_g_or2)"/><polygon points="150,212 246,212 190,342" fill="url(#f_g_right)"/><polygon points="150,212 190,342 130,440" fill="url(#f_g_gold2)"/><g stroke="#ffe7a0" stroke-opacity="0.6" stroke-width="7.0"><polygon points="131,0 0,198 96,262" fill="none"/><polygon points="131,0 96,262 150,212" fill="none"/><polygon points="131,0 150,212 246,212 238,150" fill="none"/><polygon points="0,198 44,338 96,262" fill="none"/><polygon points="96,262 150,212 130,440" fill="none"/><polygon points="44,338 96,262 130,440" fill="none"/><polygon points="150,212 246,212 190,342" fill="none"/><polygon points="150,212 190,342 130,440" fill="none"/></g><polygon points="131,0 238,150 246,212 190,342 130,440 44,338 0,198" fill="url(#f_inner)"/><polygon points="131,0 238,150 246,212 190,342 130,440 44,338 0,198" fill="none" stroke="#ffcf6a" stroke-width="14"/></g>
  </g>
</svg>